<svg xmlns="http://www.w3.org/2000/svg" width="1200" height="1200" viewBox="0 0 1200 1200" role="img" aria-label="Gold accent artwork for custom keycap preview">
  <defs>
    <linearGradient id="paper" x1="0" y1="0" x2="1" y2="1">
      <stop offset="0" stop-color="#fff7eb"/>
      <stop offset=".58" stop-color="#ead8c5"/>
      <stop offset="1" stop-color="#f9efe5"/>
    </linearGradient>
    <linearGradient id="ink" x1="0" y1="0" x2="1" y2="1">
      <stop offset="0" stop-color="#2a2927"/>
      <stop offset=".6" stop-color="#49352b"/>
      <stop offset="1" stop-color="#8c5b38"/>
    </linearGradient>
    <linearGradient id="brass" x1="0" y1="0" x2="1" y2="1">
      <stop offset="0" stop-color="#fff1bf"/>
      <stop offset=".45" stop-color="#c4904f"/>
      <stop offset="1" stop-color="#6d472d"/>
    </linearGradient>
    <filter id="badgeShadow">
      <feDropShadow dx="0" dy="18" stdDeviation="22" flood-color="#271612" flood-opacity=".2"/>
    </filter>
  </defs>
  <rect width="1200" height="1200" fill="url(#paper)"/>
  <path d="M0 612c146-53 291-56 435-8 128 42 249 32 364-30 132-72 266-84 401-38v118c-138-42-273-27-405 46-120 66-251 77-394 34-130-39-263-28-401 34Z" fill="#9c2632" opacity=".18"/>
  <path d="M78 616c132-39 256-36 373 10 104 40 203 32 297-25 122-73 249-84 379-32" fill="none" stroke="url(#brass)" stroke-width="18" stroke-linecap="round" opacity=".68"/>
  <path d="M92 566c137-36 263-30 380 18 93 38 184 30 272-23 124-75 253-88 386-39" fill="none" stroke="#fff5e9" stroke-width="8" stroke-linecap="round" opacity=".9"/>
  <g filter="url(#badgeShadow)">
    <circle cx="600" cy="600" r="252" fill="#282b2c"/>
    <circle cx="600" cy="600" r="224" fill="none" stroke="url(#brass)" stroke-width="20"/>
    <circle cx="600" cy="600" r="174" fill="#f6eadb"/>
    <g fill="url(#ink)">
      <path d="M594 475c-47-77-117-85-149-42-36 49 8 119 109 139 24-22 39-54 40-97Z"/>
      <path d="M606 475c47-77 117-85 149-42 36 49-8 119-109 139-24-22-39-54-40-97Z"/>
      <path d="M594 725c-47 77-117 85-149 42-36-49 8-119 109-139 24 22 39 54 40 97Z"/>
      <path d="M606 725c47 77 117 85 149 42 36-49-8-119-109-139-24 22-39 54-40 97Z"/>
    </g>
    <path d="M600 448c-16 95-16 199 0 304" fill="none" stroke="#2a2927" stroke-width="20" stroke-linecap="round"/>
    <path d="M454 600h292" fill="none" stroke="url(#brass)" stroke-width="12" stroke-linecap="round" opacity=".86"/>
  </g>
  <g fill="#2a2927" opacity=".24">
    <circle cx="222" cy="274" r="10"/>
    <circle cx="338" cy="878" r="7"/>
    <circle cx="916" cy="316" r="8"/>
    <circle cx="1010" cy="900" r="11"/>
  </g>
</svg>
