<svg xmlns="http://www.w3.org/2000/svg" width="1800" height="900" viewBox="0 0 1800 900" role="img" aria-label="Premium gallery tone artwork for custom keycap preview">
  <defs>
    <linearGradient id="base" x1="0" y1="0" x2="1" y2="1">
      <stop offset="0" stop-color="#fbf2e7"/>
      <stop offset=".52" stop-color="#e8d6c5"/>
      <stop offset="1" stop-color="#f7eee5"/>
    </linearGradient>
    <linearGradient id="crimson" x1="0" y1="0" x2="1" y2="1">
      <stop offset="0" stop-color="#d94b42"/>
      <stop offset=".5" stop-color="#a92d38"/>
      <stop offset="1" stop-color="#5d1e27"/>
    </linearGradient>
    <linearGradient id="brass" x1="0" y1="0" x2="1" y2="0">
      <stop offset="0" stop-color="#fff0c4"/>
      <stop offset=".52" stop-color="#c79654"/>
      <stop offset="1" stop-color="#6d4a31"/>
    </linearGradient>
    <radialGradient id="warmGlow" cx=".5" cy=".46" r=".68">
      <stop offset="0" stop-color="#fff8ee" stop-opacity=".92"/>
      <stop offset=".58" stop-color="#f0d8c4" stop-opacity=".72"/>
      <stop offset="1" stop-color="#cfa28d" stop-opacity=".28"/>
    </radialGradient>
    <filter id="grain" x="-20%" y="-20%" width="140%" height="140%">
      <feTurbulence type="fractalNoise" baseFrequency=".78" numOctaves="2" seed="18"/>
      <feColorMatrix type="saturate" values="0"/>
      <feComponentTransfer>
        <feFuncA type="table" tableValues="0 .045"/>
      </feComponentTransfer>
    </filter>
  </defs>
  <rect width="1800" height="900" fill="url(#base)"/>
  <rect width="1800" height="900" fill="url(#warmGlow)"/>
  <rect width="1800" height="900" filter="url(#grain)"/>
  <path d="M-120 210c260-56 503-42 728 41 179 66 350 55 514-35 197-108 423-122 678-42v86c-239-77-458-65-657 36-174 89-357 99-548 31-219-78-457-88-715-30Z" fill="url(#crimson)" opacity=".24"/>
  <path d="M-80 686c264-72 507-78 729-19 199 53 380 35 543-55 184-102 387-111 608-28v98c-216-85-416-74-600 34-166 97-356 116-569 55-204-59-441-42-711 49Z" fill="#242629" opacity=".2"/>
  <path d="M-40 486c222-58 432-52 630 18 168 59 326 47 474-37 194-110 407-124 640-44" fill="none" stroke="url(#brass)" stroke-width="12" stroke-linecap="round" opacity=".72"/>
  <path d="M-24 544c212-40 408-31 587 27 170 56 330 41 480-47 195-116 415-129 659-39" fill="none" stroke="#fff4e8" stroke-width="5" stroke-linecap="round" opacity=".8"/>
  <g fill="none" stroke-linecap="round" opacity=".32">
    <path d="M156 132h340" stroke="#8d6b52" stroke-width="5"/>
    <path d="M620 150h166" stroke="#8d6b52" stroke-width="5"/>
    <path d="M1110 112h360" stroke="#fff4e8" stroke-width="5"/>
    <path d="M320 790h420" stroke="#c79654" stroke-width="5"/>
    <path d="M1028 750h486" stroke="#c79654" stroke-width="5"/>
  </g>
</svg>
